<svg width="54" height="54" viewBox="0 0 54 54" fill="none" xmlns="http://www.w3.org/2000/svg">
<path d="M36.7653 36.3759C38.6335 36.1857 40.0508 34.6024 39.9863 32.7022C39.922 30.8021 38.3113 29.282 36.3787 29.282H36.2499C34.2526 29.3454 32.7066 30.9921 32.771 32.9555C32.8355 33.9056 33.2219 34.729 33.8017 35.299C31.6114 39.5427 28.2615 42.6462 23.2365 45.2431C19.8221 47.0165 16.279 47.6499 12.7358 47.2067C9.83674 46.8266 7.58195 45.56 6.16445 43.4696C4.10306 40.3661 3.90986 37.0091 5.6493 33.6523C6.8734 31.2454 8.80585 29.4719 10.0299 28.5852C9.77227 27.7618 9.38566 26.3684 9.19246 25.3551C-0.148845 32.0056 0.817578 40.9995 3.65218 45.2431C5.77804 48.4101 10.0944 50.3735 14.8617 50.3735C16.15 50.3735 17.4384 50.2468 18.727 49.9303C26.9731 48.3467 33.2221 43.533 36.7653 36.3759ZM48.1037 28.522C43.2075 22.8849 35.9923 19.7814 27.7461 19.7814H26.7154C26.1356 18.6413 24.9115 17.8812 23.5587 17.8812H23.4297C21.4328 17.9445 19.8868 19.5913 19.9511 21.5549C20.0155 23.4549 21.626 24.9751 23.5587 24.9751H23.6874C25.1047 24.9117 26.3288 24.0249 26.8442 22.8215H28.0038C32.9 22.8215 37.5383 24.2149 41.7259 26.9385C44.947 29.0287 47.2662 31.7523 48.5546 35.0457C49.6497 37.7059 49.5853 40.3027 48.4256 42.5197C46.6219 45.8765 43.5941 47.7133 39.5999 47.7133C37.023 47.7133 34.575 46.9532 33.2864 46.3831C32.5778 47.0165 31.2893 48.0298 30.3873 48.6634C33.1577 49.9301 35.9923 50.6269 38.6979 50.6269C44.8825 50.6269 49.4565 47.2699 51.196 43.9131C53.0642 40.2393 52.9352 33.9056 48.1037 28.522ZM15.377 37.4524C15.4415 39.3526 17.052 40.8726 18.9846 40.8726H19.1136C21.1107 40.8094 22.6567 39.1625 22.5923 37.199C22.528 35.2988 20.9173 33.7789 18.9846 33.7789H18.8559C18.727 33.7789 18.5336 33.7789 18.405 33.842C15.7636 29.5351 14.6685 24.8483 15.0551 19.7812C15.3125 15.9809 16.6011 12.6873 18.8559 9.96372C20.7241 7.62021 24.3317 6.48015 26.7799 6.41696C33.6085 6.2902 36.5074 14.6507 36.7008 18.0077C37.5383 18.1977 38.9556 18.6411 39.922 18.9578C39.1488 8.69728 32.7066 3.37686 26.5222 3.37686C20.7241 3.37686 15.377 7.49384 13.251 13.5742C10.2876 21.6814 12.2203 29.4719 15.8279 35.6157C15.5059 36.059 15.3125 36.7558 15.377 37.4526V37.4524Z" fill="#fff"/>
</svg>
